<svg width="1775" height="421" viewBox="0 0 1775 421" fill="none" xmlns="http://www.w3.org/2000/svg">
<g filter="url(#filter0_f_99_22)">
<path d="M607.105 371.599V114.222C607.105 107.549 605.994 105.643 602.106 105.643H591.275C583.222 105.643 581 101.83 581 88.0078V49.4013C581 35.5792 583.222 31.7662 591.275 31.7662H635.154C643.208 31.7662 645.43 35.5792 645.43 49.4013V371.599C645.43 385.421 643.208 389.234 635.154 389.234H617.381C609.327 389.234 607.105 385.421 607.105 371.599Z" fill="#F0A2A0"/>
<path d="M713.791 313.927C711.57 320.123 712.403 324.89 717.124 324.89H760.447C768.501 324.89 770.723 328.703 770.723 342.525V371.599C770.723 385.421 768.501 389.234 760.447 389.234H677.688C669.635 389.234 667.413 385.421 667.413 371.599V337.282C667.413 324.413 667.968 318.217 671.023 310.114L719.623 182.379C727.122 162.838 731.287 139.006 731.287 121.848C731.287 100.877 727.399 93.7273 717.124 93.7273C707.404 93.7273 702.96 101.353 702.96 120.418V146.156C702.96 159.978 700.739 163.791 692.685 163.791H675.467C667.413 163.791 665.191 159.978 665.191 146.156V131.857C665.191 57.5039 678.521 27 717.124 27C756.282 27 770.723 57.9805 770.723 119.942C770.723 146.632 765.169 175.707 753.505 206.687L713.791 313.927Z" fill="#F0A2A0"/>
<path d="M823.176 347.768V360.16C823.176 379.701 817.622 389.234 806.236 389.234H799.015C787.906 389.234 782.074 379.701 782.074 360.16V347.768C782.074 328.703 787.906 318.694 799.015 318.694H806.236C817.622 318.694 823.176 328.703 823.176 347.768Z" fill="#F0A2A0"/>
<path d="M900.791 293.432V271.984C900.791 250.06 896.07 241.004 885.517 241.004H878.019C869.409 241.004 867.743 237.191 867.743 223.369V195.248C867.743 181.426 869.409 177.613 878.019 177.613H885.517C896.07 177.613 900.791 168.081 900.791 144.249V127.568C900.791 103.26 896.348 93.7273 886.905 93.7273C876.908 93.7273 872.464 101.353 872.464 120.418V129.474C872.464 143.296 870.242 147.109 862.189 147.109H844.97C836.917 147.109 834.695 143.296 834.695 129.474V127.091C834.695 57.0273 848.858 27 887.461 27C923.564 27 940.227 54.1676 940.227 115.175V142.819C940.227 169.51 937.172 189.529 926.063 205.257C925.23 206.687 924.952 207.164 924.952 208.117C924.952 209.07 925.23 209.547 926.063 210.977C937.45 225.275 940.227 243.864 940.227 271.508V305.825C940.227 366.832 923.564 394 887.461 394C848.858 394 834.695 363.973 834.695 293.909V291.526C834.695 277.704 836.917 273.891 844.97 273.891H862.189C870.242 273.891 872.464 277.704 872.464 291.526V300.582C872.464 319.647 876.908 327.273 886.905 327.273C896.348 327.273 900.791 317.74 900.791 293.432Z" fill="#F0A2A0"/>
<path d="M1049.52 173.8C1057.57 173.8 1059.8 177.613 1059.8 191.435V261.975C1059.8 268.171 1060.91 270.078 1064.79 270.078H1067.57C1075.63 270.078 1077.85 273.891 1077.85 287.713V319.647C1077.85 332.992 1075.35 336.805 1067.57 336.805H1064.79C1060.91 336.805 1059.8 338.235 1059.8 344.908V371.599C1059.8 385.421 1057.57 389.234 1049.52 389.234H1031.75C1023.69 389.234 1021.47 385.421 1021.47 371.599V345.384C1021.47 338.712 1020.36 336.805 1016.47 336.805H962.874C954.82 336.805 952.598 332.992 952.598 319.17V292.956C952.598 274.368 953.431 268.171 956.208 252.919L995.366 45.5883C997.31 34.626 999.81 31.7662 1008.7 31.7662H1030.08C1037.86 31.7662 1038.41 37.9623 1036.47 48.9247L999.254 261.499C998.143 268.648 998.977 270.078 1002.03 270.078H1016.47C1020.36 270.078 1021.47 268.171 1021.47 261.499V191.435C1021.47 177.613 1023.69 173.8 1031.75 173.8H1049.52Z" fill="#F0A2A0"/>
<path d="M1155.56 300.582V254.826C1155.56 227.182 1150.57 219.556 1135.57 219.556H1111.41C1094.47 219.556 1091.13 214.313 1091.13 189.052V49.4013C1091.13 35.5792 1093.36 31.7662 1101.41 31.7662H1180.84C1188.89 31.7662 1191.11 35.5792 1191.11 49.4013V80.8585C1191.11 94.6805 1188.89 98.4935 1180.84 98.4935H1133.62C1129.74 98.4935 1128.63 100.877 1128.63 107.073V139.96C1128.63 150.445 1129.74 152.829 1136.68 152.829H1141.4C1180 152.829 1195 184.286 1195 254.826V300.582C1195 361.113 1181.39 394 1141.4 394C1101.97 394 1088.36 363.496 1088.36 289.143V274.844C1088.36 261.022 1090.58 257.209 1098.63 257.209H1116.96C1125.02 257.209 1127.24 261.022 1127.24 274.844V300.582C1127.24 319.647 1131.68 327.273 1141.4 327.273C1151.12 327.273 1155.56 319.647 1155.56 300.582Z" fill="#F0A2A0"/>
</g>
<path d="M25.856 129C50.432 129 55.424 137.96 55.424 159.72V194.28C55.424 216.04 50.432 225 25.856 225H10.24C6.528 225 5.504 223.976 5.504 220.264V133.736C5.504 130.024 6.528 129 10.24 129H25.856ZM25.472 146.92C23.68 146.92 23.168 147.432 23.168 149.224V204.776C23.168 206.44 23.68 207.08 25.472 207.08H26.88C34.048 207.08 37.248 203.752 37.248 195.432V158.568C37.248 150.248 34.048 146.92 26.88 146.92H25.472ZM113.007 196.84C113.007 218.472 106.863 226.28 88.303 226.28C69.743 226.28 63.599 218.472 63.599 196.84V157.16C63.599 135.656 69.743 127.72 88.303 127.72C106.863 127.72 113.007 135.656 113.007 157.16V196.84ZM81.775 201.192C81.775 206.312 83.823 208.36 88.303 208.36C92.783 208.36 94.831 206.312 94.831 201.192V153.448C94.831 147.816 92.783 145.64 88.303 145.64C83.823 145.64 81.775 147.816 81.775 153.448V201.192ZM153.858 133.736C153.858 130.024 154.882 129 158.594 129H166.786C170.498 129 171.522 130.024 171.522 133.736V198.12C171.522 218.728 165.378 226.28 146.818 226.28C128.258 226.28 122.114 218.728 122.114 198.12V133.736C122.114 130.024 123.138 129 126.85 129H135.042C138.754 129 139.778 130.024 139.778 133.736V201.192C139.778 206.312 141.954 208.36 146.818 208.36C151.554 208.36 153.858 206.312 153.858 201.192V133.736ZM197.141 204.008C195.989 206.824 196.501 207.848 198.805 207.848H216.213C219.925 207.848 220.949 208.872 220.949 212.584V220.392C220.949 224.104 219.925 225.128 216.213 225.128H181.653C177.941 225.128 176.917 224.104 176.917 220.392V213.224C176.917 209.128 177.173 207.208 178.837 203.24L201.493 150.12C202.645 147.304 202.133 146.28 199.829 146.28H182.293C178.581 146.28 177.557 145.256 177.557 141.544V133.736C177.557 130.024 178.581 129 182.293 129H216.853C220.565 129 221.589 130.024 221.589 133.736V140.904C221.589 145 221.333 146.92 219.669 150.888L197.141 204.008ZM245.293 149.224V163.56C245.293 165.224 245.805 165.864 247.597 165.864H263.469C267.181 165.864 268.205 166.888 268.205 170.6V179.048C268.205 182.76 267.181 183.784 263.725 183.784H247.597C245.805 183.784 245.293 184.296 245.293 186.088V204.776C245.293 206.44 245.805 207.08 247.597 207.08H265.005C268.717 207.08 269.741 208.104 269.741 211.816V220.264C269.741 223.976 268.717 225 265.005 225H232.365C228.653 225 227.629 223.976 227.629 220.264V133.736C227.629 130.024 228.653 129 232.365 129H265.005C268.717 129 269.741 130.024 269.741 133.736V142.184C269.741 145.896 268.717 146.92 265.005 146.92H247.597C245.805 146.92 245.293 147.432 245.293 149.224ZM331.9 185.832C332.156 186.856 332.54 187.112 333.18 187.112C333.82 187.112 334.204 186.856 334.46 185.832L345.468 132.328C345.98 129.64 347.132 129 350.332 129H362.748C366.46 129 367.484 130.024 367.484 133.736V220.264C367.484 223.976 366.46 225 362.748 225H356.86C353.148 225 352.124 223.976 352.124 220.264V178.792C352.124 177.64 351.868 177.384 351.1 177.384C350.588 177.384 350.076 177.64 349.948 178.536L340.86 220.776C340.22 223.848 338.812 225 335.1 225H331.644C327.804 225 326.396 223.848 325.756 220.776L316.54 178.536C316.284 177.64 316.028 177.384 315.388 177.384C314.62 177.384 314.364 177.64 314.364 178.792V220.264C314.364 223.976 313.34 225 309.628 225H303.74C300.028 225 299.004 223.976 299.004 220.264V133.736C299.004 130.024 300.028 129 303.74 129H314.364C318.844 129 320.508 130.024 321.404 134.504L331.9 185.832ZM396.793 133.736V220.264C396.793 223.976 395.769 225 392.057 225H383.865C380.153 225 379.129 223.976 379.129 220.264V133.736C379.129 130.024 380.153 129 383.865 129H392.057C395.769 129 396.793 130.024 396.793 133.736ZM426.043 205.032C426.043 206.568 426.555 207.08 428.347 207.08H444.347C448.059 207.08 449.083 208.104 449.083 211.816V220.264C449.083 223.976 448.059 225 444.347 225H413.115C409.403 225 408.379 223.976 408.379 220.264V133.736C408.379 130.024 409.403 129 413.115 129H421.307C425.019 129 426.043 130.024 426.043 133.736V205.032ZM470.668 205.032C470.668 206.568 471.18 207.08 472.972 207.08H488.972C492.684 207.08 493.708 208.104 493.708 211.816V220.264C493.708 223.976 492.684 225 488.972 225H457.74C454.028 225 453.004 223.976 453.004 220.264V133.736C453.004 130.024 454.028 129 457.74 129H465.932C469.644 129 470.668 130.024 470.668 133.736V205.032ZM515.293 149.224V163.56C515.293 165.224 515.805 165.864 517.597 165.864H533.469C537.181 165.864 538.205 166.888 538.205 170.6V179.048C538.205 182.76 537.181 183.784 533.725 183.784H517.597C515.805 183.784 515.293 184.296 515.293 186.088V204.776C515.293 206.44 515.805 207.08 517.597 207.08H535.005C538.717 207.08 539.741 208.104 539.741 211.816V220.264C539.741 223.976 538.717 225 535.005 225H502.365C498.653 225 497.629 223.976 497.629 220.264V133.736C497.629 130.024 498.653 129 502.365 129H535.005C538.717 129 539.741 130.024 539.741 133.736V142.184C539.741 145.896 538.717 146.92 535.005 146.92H517.597C515.805 146.92 515.293 147.432 515.293 149.224ZM606.764 146.92H598.828C597.036 146.92 596.524 147.432 596.524 149.224V220.264C596.524 223.976 595.5 225 591.788 225H583.596C579.884 225 578.86 223.976 578.86 220.264V149.224C578.86 147.432 578.348 146.92 576.556 146.92H568.62C564.908 146.92 563.884 145.896 563.884 142.184V133.736C563.884 130.024 564.908 129 568.62 129H606.764C610.476 129 611.5 130.024 611.5 133.736V142.184C611.5 145.896 610.476 146.92 606.764 146.92ZM649.046 221.416L638.806 190.312C638.166 188.52 637.654 188.008 635.734 188.008H635.222C633.43 188.008 632.918 188.52 632.918 190.312V220.264C632.918 223.976 631.894 225 628.182 225H619.99C616.278 225 615.254 223.976 615.254 220.264V133.736C615.254 130.024 616.278 129 619.99 129H636.886C656.342 129 665.174 135.656 665.174 152.04V161.256C665.174 173.288 663.254 177.896 656.47 183.656C655.702 184.168 655.574 184.424 655.574 185.064C655.574 185.448 655.702 185.832 655.958 186.728L667.222 220.136C668.374 223.464 667.094 225 663.766 225H654.422C650.838 225 650.07 224.488 649.046 221.416ZM632.918 148.584V168.296C632.918 170.088 633.43 170.6 635.222 170.6H637.91C643.926 170.6 646.998 167.912 646.998 161.768V154.728C646.998 148.712 644.182 146.28 637.91 146.28H635.222C633.43 146.28 632.918 146.792 632.918 148.584ZM721.882 196.84C721.882 218.472 715.738 226.28 697.178 226.28C678.618 226.28 672.474 218.472 672.474 196.84V157.16C672.474 135.656 678.618 127.72 697.178 127.72C715.738 127.72 721.882 135.656 721.882 157.16V196.84ZM690.65 201.192C690.65 206.312 692.698 208.36 697.178 208.36C701.658 208.36 703.706 206.312 703.706 201.192V153.448C703.706 147.816 701.658 145.64 697.178 145.64C692.698 145.64 690.65 147.816 690.65 153.448V201.192ZM749.918 133.736V220.264C749.918 223.976 748.894 225 745.182 225H736.99C733.278 225 732.254 223.976 732.254 220.264V133.736C732.254 130.024 733.278 129 736.99 129H745.182C748.894 129 749.918 130.024 749.918 133.736ZM780.719 163.176L797.103 178.024C805.679 185.704 807.599 190.312 807.599 198.888V201.192C807.599 217.32 801.455 226.28 782.895 226.28C764.335 226.28 758.191 218.728 758.191 198.12V195.56C758.191 191.848 759.215 190.824 762.927 190.824H771.631C775.343 190.824 776.367 191.848 776.367 195.56V201.192C776.367 206.312 778.415 208.36 782.895 208.36C787.375 208.36 789.423 206.44 789.423 201.832V199.4C789.423 195.816 788.655 194.024 783.919 189.8L768.559 176.104C759.983 168.552 758.191 164.2 758.191 155.624V152.808C758.191 136.68 764.335 127.72 782.895 127.72C801.455 127.72 807.599 135.272 807.599 155.88V158.44C807.599 162.152 806.575 163.176 802.863 163.176H794.159C790.447 163.176 789.423 162.152 789.423 158.44V152.808C789.423 147.688 787.375 145.64 782.895 145.64C778.415 145.64 776.367 147.56 776.367 152.168V154.344C776.367 158.056 777.135 159.848 780.719 163.176ZM884.876 194.28V198.12C884.876 218.728 878.988 226.28 860.428 226.28C841.868 226.28 835.724 218.728 835.724 198.12V155.88C835.724 135.272 841.868 127.72 860.428 127.72C878.988 127.72 884.876 135.272 884.876 155.88V159.72C884.876 163.432 883.852 164.456 880.14 164.456H871.948C868.236 164.456 867.212 163.432 867.212 159.72V152.808C867.212 147.688 865.036 145.64 860.556 145.64C856.076 145.64 853.9 147.688 853.9 152.808V201.192C853.9 206.312 856.076 208.36 860.556 208.36C865.036 208.36 867.212 206.312 867.212 201.192V194.28C867.212 190.568 868.236 189.544 871.948 189.544H880.14C883.852 189.544 884.876 190.568 884.876 194.28ZM910.918 149.224V163.56C910.918 165.224 911.43 165.864 913.222 165.864H929.094C932.806 165.864 933.83 166.888 933.83 170.6V179.048C933.83 182.76 932.806 183.784 929.35 183.784H913.222C911.43 183.784 910.918 184.296 910.918 186.088V204.776C910.918 206.44 911.43 207.08 913.222 207.08H930.63C934.342 207.08 935.366 208.104 935.366 211.816V220.264C935.366 223.976 934.342 225 930.63 225H897.99C894.278 225 893.254 223.976 893.254 220.264V133.736C893.254 130.024 894.278 129 897.99 129H930.63C934.342 129 935.366 130.024 935.366 133.736V142.184C935.366 145.896 934.342 146.92 930.63 146.92H913.222C911.43 146.92 910.918 147.432 910.918 149.224ZM978.576 175.464V133.736C978.576 130.024 979.6 129 983.312 129H990.48C994.192 129 995.216 130.024 995.216 133.736V220.264C995.216 223.976 994.192 225 990.48 225H984.592C980.624 225 979.472 224.104 978.192 220.648L962.192 178.28C961.808 177.384 961.424 177.128 960.912 177.128C960.272 177.128 960.016 177.384 960.016 178.536V220.264C960.016 223.976 958.992 225 955.28 225H948.24C944.528 225 943.504 223.976 943.504 220.264V133.736C943.504 130.024 944.528 129 948.24 129H954C957.712 129 958.992 129.384 960.144 132.328L976.4 175.72C976.784 176.616 977.168 176.872 977.68 176.872C978.32 176.872 978.576 176.616 978.576 175.464ZM1042.14 146.92H1034.2C1032.41 146.92 1031.9 147.432 1031.9 149.224V220.264C1031.9 223.976 1030.88 225 1027.16 225H1018.97C1015.26 225 1014.24 223.976 1014.24 220.264V149.224C1014.24 147.432 1013.72 146.92 1011.93 146.92H1004C1000.28 146.92 999.259 145.896 999.259 142.184V133.736C999.259 130.024 1000.28 129 1004 129H1042.14C1045.85 129 1046.88 130.024 1046.88 133.736V142.184C1046.88 145.896 1045.85 146.92 1042.14 146.92ZM1100.77 239.72H1093.34C1089.63 239.72 1088.61 238.696 1088.61 234.984V227.048C1088.61 225.768 1088.35 225.384 1086.69 224.872C1076.06 221.8 1072.35 213.608 1072.35 196.84V157.16C1072.35 135.656 1078.49 127.72 1097.05 127.72C1115.61 127.72 1121.76 135.656 1121.76 157.16V196.84C1121.76 213.608 1118.05 221.8 1107.42 224.872C1105.76 225.384 1105.5 225.768 1105.5 227.048V234.984C1105.5 238.696 1104.48 239.72 1100.77 239.72ZM1103.58 152.808C1103.58 147.688 1101.53 145.64 1097.05 145.64C1092.57 145.64 1090.53 147.688 1090.53 152.808V201.192C1090.53 206.312 1092.57 208.36 1097.05 208.36C1101.53 208.36 1103.58 206.312 1103.58 201.192V152.808ZM1162.61 133.736C1162.61 130.024 1163.63 129 1167.34 129H1175.54C1179.25 129 1180.27 130.024 1180.27 133.736V198.12C1180.27 218.728 1174.13 226.28 1155.57 226.28C1137.01 226.28 1130.86 218.728 1130.86 198.12V133.736C1130.86 130.024 1131.89 129 1135.6 129H1143.79C1147.5 129 1148.53 130.024 1148.53 133.736V201.192C1148.53 206.312 1150.7 208.36 1155.57 208.36C1160.3 208.36 1162.61 206.312 1162.61 201.192V133.736ZM1205.11 129H1221.24C1227 129 1228.79 130.92 1229.43 135.656L1240.69 220.264C1241.2 223.976 1240.18 225 1236.47 225H1227.64C1223.8 225 1222.9 224.104 1222.39 220.264L1220.72 206.312C1220.6 205.032 1220.21 204.648 1218.68 204.648H1207.67C1206.13 204.648 1205.75 205.032 1205.62 206.312L1203.96 220.264C1203.44 224.104 1202.55 225 1198.71 225H1189.88C1186.16 225 1185.14 223.976 1185.65 220.264L1196.92 135.656C1197.56 130.92 1199.35 129 1205.11 129ZM1215.48 155.112C1215.35 153.576 1214.58 153.32 1213.17 153.32C1211.76 153.32 1211 153.576 1210.87 155.112L1207.92 184.936C1207.8 186.472 1208.18 186.856 1209.84 186.856H1216.5C1218.16 186.856 1218.55 186.472 1218.42 184.936L1215.48 155.112ZM1280.55 221.416L1270.31 190.312C1269.67 188.52 1269.15 188.008 1267.23 188.008H1266.72C1264.93 188.008 1264.42 188.52 1264.42 190.312V220.264C1264.42 223.976 1263.39 225 1259.68 225H1251.49C1247.78 225 1246.75 223.976 1246.75 220.264V133.736C1246.75 130.024 1247.78 129 1251.49 129H1268.39C1287.84 129 1296.67 135.656 1296.67 152.04V161.256C1296.67 173.288 1294.75 177.896 1287.97 183.656C1287.2 184.168 1287.07 184.424 1287.07 185.064C1287.07 185.448 1287.2 185.832 1287.46 186.728L1298.72 220.136C1299.87 223.464 1298.59 225 1295.27 225H1285.92C1282.34 225 1281.57 224.488 1280.55 221.416ZM1264.42 148.584V168.296C1264.42 170.088 1264.93 170.6 1266.72 170.6H1269.41C1275.43 170.6 1278.5 167.912 1278.5 161.768V154.728C1278.5 148.712 1275.68 146.28 1269.41 146.28H1266.72C1264.93 146.28 1264.42 146.792 1264.42 148.584ZM1322.23 129H1338.36C1344.12 129 1345.91 130.92 1346.55 135.656L1357.82 220.264C1358.33 223.976 1357.31 225 1353.59 225H1344.76C1340.92 225 1340.03 224.104 1339.51 220.264L1337.85 206.312C1337.72 205.032 1337.34 204.648 1335.8 204.648H1324.79C1323.26 204.648 1322.87 205.032 1322.75 206.312L1321.08 220.264C1320.57 224.104 1319.67 225 1315.83 225H1307C1303.29 225 1302.27 223.976 1302.78 220.264L1314.04 135.656C1314.68 130.92 1316.47 129 1322.23 129ZM1332.6 155.112C1332.47 153.576 1331.71 153.32 1330.3 153.32C1328.89 153.32 1328.12 153.576 1327.99 155.112L1325.05 184.936C1324.92 186.472 1325.31 186.856 1326.97 186.856H1333.62C1335.29 186.856 1335.67 186.472 1335.55 184.936L1332.6 155.112ZM1398.95 175.464V133.736C1398.95 130.024 1399.98 129 1403.69 129H1410.86C1414.57 129 1415.59 130.024 1415.59 133.736V220.264C1415.59 223.976 1414.57 225 1410.86 225H1404.97C1401 225 1399.85 224.104 1398.57 220.648L1382.57 178.28C1382.18 177.384 1381.8 177.128 1381.29 177.128C1380.65 177.128 1380.39 177.384 1380.39 178.536V220.264C1380.39 223.976 1379.37 225 1375.66 225H1368.62C1364.9 225 1363.88 223.976 1363.88 220.264V133.736C1363.88 130.024 1364.9 129 1368.62 129H1374.38C1378.09 129 1379.37 129.384 1380.52 132.328L1396.78 175.72C1397.16 176.616 1397.54 176.872 1398.06 176.872C1398.7 176.872 1398.95 176.616 1398.95 175.464ZM1462.51 146.92H1454.58C1452.79 146.92 1452.27 147.432 1452.27 149.224V220.264C1452.27 223.976 1451.25 225 1447.54 225H1439.35C1435.63 225 1434.61 223.976 1434.61 220.264V149.224C1434.61 147.432 1434.1 146.92 1432.31 146.92H1424.37C1420.66 146.92 1419.63 145.896 1419.63 142.184V133.736C1419.63 130.024 1420.66 129 1424.37 129H1462.51C1466.23 129 1467.25 130.024 1467.25 133.736V142.184C1467.25 145.896 1466.23 146.92 1462.51 146.92ZM1488.67 149.224V163.56C1488.67 165.224 1489.18 165.864 1490.97 165.864H1506.84C1510.56 165.864 1511.58 166.888 1511.58 170.6V179.048C1511.58 182.76 1510.56 183.784 1507.1 183.784H1490.97C1489.18 183.784 1488.67 184.296 1488.67 186.088V204.776C1488.67 206.44 1489.18 207.08 1490.97 207.08H1508.38C1512.09 207.08 1513.12 208.104 1513.12 211.816V220.264C1513.12 223.976 1512.09 225 1508.38 225H1475.74C1472.03 225 1471 223.976 1471 220.264V133.736C1471 130.024 1472.03 129 1475.74 129H1508.38C1512.09 129 1513.12 130.024 1513.12 133.736V142.184C1513.12 145.896 1512.09 146.92 1508.38 146.92H1490.97C1489.18 146.92 1488.67 147.432 1488.67 149.224ZM1549.93 181.864C1549.93 185.576 1548.9 186.6 1545.45 186.6H1523.05C1519.59 186.6 1518.57 185.576 1518.57 181.864V177.384C1518.57 173.672 1519.59 172.648 1523.3 172.648H1545.19C1548.9 172.648 1549.93 173.672 1549.93 177.384V181.864ZM1606.13 194.28V198.12C1606.13 218.728 1600.24 226.28 1581.68 226.28C1563.12 226.28 1556.97 218.728 1556.97 198.12V155.88C1556.97 135.272 1563.12 127.72 1581.68 127.72C1600.24 127.72 1606.13 135.272 1606.13 155.88V159.72C1606.13 163.432 1605.1 164.456 1601.39 164.456H1593.2C1589.49 164.456 1588.46 163.432 1588.46 159.72V152.808C1588.46 147.688 1586.29 145.64 1581.81 145.64C1577.33 145.64 1575.15 147.688 1575.15 152.808V201.192C1575.15 206.312 1577.33 208.36 1581.81 208.36C1586.29 208.36 1588.46 206.312 1588.46 201.192V194.28C1588.46 190.568 1589.49 189.544 1593.2 189.544H1601.39C1605.1 189.544 1606.13 190.568 1606.13 194.28ZM1632.17 133.736V220.264C1632.17 223.976 1631.14 225 1627.43 225H1619.24C1615.53 225 1614.5 223.976 1614.5 220.264V133.736C1614.5 130.024 1615.53 129 1619.24 129H1627.43C1631.14 129 1632.17 130.024 1632.17 133.736ZM1678.83 175.464V133.736C1678.83 130.024 1679.85 129 1683.56 129H1690.73C1694.44 129 1695.47 130.024 1695.47 133.736V220.264C1695.47 223.976 1694.44 225 1690.73 225H1684.84C1680.87 225 1679.72 224.104 1678.44 220.648L1662.44 178.28C1662.06 177.384 1661.67 177.128 1661.16 177.128C1660.52 177.128 1660.27 177.384 1660.27 178.536V220.264C1660.27 223.976 1659.24 225 1655.53 225H1648.49C1644.78 225 1643.75 223.976 1643.75 220.264V133.736C1643.75 130.024 1644.78 129 1648.49 129H1654.25C1657.96 129 1659.24 129.384 1660.39 132.328L1676.65 175.72C1677.03 176.616 1677.42 176.872 1677.93 176.872C1678.57 176.872 1678.83 176.616 1678.83 175.464ZM1734.27 239.72H1726.84C1723.13 239.72 1722.11 238.696 1722.11 234.984V227.048C1722.11 225.768 1721.85 225.384 1720.19 224.872C1709.56 221.8 1705.85 213.608 1705.85 196.84V157.16C1705.85 135.656 1711.99 127.72 1730.55 127.72C1749.11 127.72 1755.26 135.656 1755.26 157.16V196.84C1755.26 213.608 1751.55 221.8 1740.92 224.872C1739.26 225.384 1739 225.768 1739 227.048V234.984C1739 238.696 1737.98 239.72 1734.27 239.72ZM1737.08 152.808C1737.08 147.688 1735.03 145.64 1730.55 145.64C1726.07 145.64 1724.03 147.688 1724.03 152.808V201.192C1724.03 206.312 1726.07 208.36 1730.55 208.36C1735.03 208.36 1737.08 206.312 1737.08 201.192V152.808Z" fill="white"/>
<rect x="545" y="189" width="686" height="138" rx="50" fill="#E3323F"/>
<path d="M669.496 279.128C657.272 279.128 651 273.368 651 260.632V256.408C651 243.096 657.016 237.208 668.152 237.208C680.376 237.208 685.368 243.288 685.368 256.408V261.016C685.368 266.008 683.32 269.208 679.16 269.208C677.112 269.208 675.512 268.632 674.36 267.48C673.912 267.032 673.656 267.032 673.336 267.544C671.992 269.464 670.52 270.616 667.896 270.616C662.776 270.616 660.152 267.864 660.152 259.992V256.408C660.152 248.728 662.264 245.72 668.152 245.72C674.04 245.72 676.152 248.6 676.152 256.408V259.8C676.152 261.848 676.536 262.488 677.56 262.488C678.648 262.488 678.968 261.912 678.968 259.736V255.832C678.968 246.68 675.384 243.288 668.216 243.288C660.856 243.288 657.4 246.744 657.4 255.832V260.952C657.4 269.528 661.24 273.048 669.496 273.048C671.352 273.048 671.864 273.56 671.864 275.416V276.696C671.864 278.616 671.352 279.128 669.496 279.128ZM666.232 262.36C666.232 263.832 666.808 264.536 668.152 264.536C669.432 264.536 670.072 263.832 670.072 262.36V254.04C670.072 252.44 669.432 251.8 668.152 251.8C666.808 251.8 666.232 252.44 666.232 254.04V262.36Z" fill="white"/>
<path d="M706.163 262.616C706.291 263.128 706.483 263.256 706.803 263.256C707.123 263.256 707.315 263.128 707.443 262.616L712.947 235.864C713.203 234.52 713.779 234.2 715.379 234.2H721.587C723.443 234.2 723.954 234.712 723.954 236.568V279.832C723.954 281.688 723.443 282.2 721.587 282.2H718.643C716.787 282.2 716.275 281.688 716.275 279.832V259.096C716.275 258.52 716.147 258.392 715.763 258.392C715.507 258.392 715.251 258.52 715.187 258.968L710.643 280.088C710.323 281.624 709.618 282.2 707.763 282.2H706.035C704.115 282.2 703.41 281.624 703.09 280.088L698.483 258.968C698.355 258.52 698.227 258.392 697.907 258.392C697.523 258.392 697.395 258.52 697.395 259.096V279.832C697.395 281.688 696.883 282.2 695.027 282.2H692.083C690.227 282.2 689.715 281.688 689.715 279.832V236.568C689.715 234.712 690.227 234.2 692.083 234.2H697.395C699.635 234.2 700.467 234.712 700.915 236.952L706.163 262.616Z" fill="white"/>
<path d="M736.704 234.2H744.768C747.648 234.2 748.544 235.16 748.864 237.528L754.496 279.832C754.752 281.688 754.24 282.2 752.384 282.2H747.968C746.048 282.2 745.6 281.752 745.344 279.832L744.512 272.856C744.448 272.216 744.256 272.024 743.488 272.024H737.984C737.216 272.024 737.024 272.216 736.96 272.856L736.128 279.832C735.872 281.752 735.424 282.2 733.504 282.2H729.088C727.232 282.2 726.72 281.688 726.976 279.832L732.608 237.528C732.928 235.16 733.824 234.2 736.704 234.2ZM741.888 247.256C741.824 246.488 741.44 246.36 740.736 246.36C740.032 246.36 739.648 246.488 739.584 247.256L738.112 262.168C738.048 262.936 738.24 263.128 739.072 263.128H742.4C743.232 263.128 743.424 262.936 743.36 262.168L741.888 247.256Z" fill="white"/>
<path d="M774.157 243.16H770.189C769.293 243.16 769.037 243.416 769.037 244.312V279.832C769.037 281.688 768.525 282.2 766.669 282.2H762.573C760.717 282.2 760.205 281.688 760.205 279.832V244.312C760.205 243.416 759.949 243.16 759.053 243.16H755.085C753.229 243.16 752.717 242.648 752.717 240.792V236.568C752.717 234.712 753.229 234.2 755.085 234.2H774.157C776.013 234.2 776.525 234.712 776.525 236.568V240.792C776.525 242.648 776.013 243.16 774.157 243.16Z" fill="white"/>
<path d="M789.26 251.288L797.452 258.712C801.74 262.552 802.7 264.856 802.7 269.144V270.296C802.7 278.36 799.628 282.84 790.348 282.84C781.068 282.84 777.995 279.064 777.995 268.76V267.48C777.995 265.624 778.507 265.112 780.363 265.112H784.715C786.571 265.112 787.083 265.624 787.083 267.48V270.296C787.083 272.856 788.108 273.88 790.348 273.88C792.588 273.88 793.611 272.92 793.611 270.616V269.4C793.611 267.608 793.227 266.712 790.859 264.6L783.18 257.752C778.892 253.976 777.995 251.8 777.995 247.512V246.104C777.995 238.04 781.068 233.56 790.348 233.56C799.628 233.56 802.7 237.336 802.7 247.64V248.92C802.7 250.776 802.187 251.288 800.331 251.288H795.98C794.124 251.288 793.611 250.776 793.611 248.92V246.104C793.611 243.544 792.588 242.52 790.348 242.52C788.108 242.52 787.083 243.48 787.083 245.784V246.872C787.083 248.728 787.468 249.624 789.26 251.288Z" fill="white"/>
<path d="M822.391 236.568C822.391 234.712 822.904 234.2 824.76 234.2H828.855C830.711 234.2 831.223 234.712 831.223 236.568V268.76C831.223 279.064 828.152 282.84 818.872 282.84C809.592 282.84 806.52 279.064 806.52 268.76V236.568C806.52 234.712 807.031 234.2 808.887 234.2H812.984C814.84 234.2 815.352 234.712 815.352 236.568V270.296C815.352 272.856 816.44 273.88 818.872 273.88C821.24 273.88 822.391 272.856 822.391 270.296V236.568Z" fill="white"/>
<path d="M849.514 262.872C849.386 262.36 848.938 262.296 848.682 262.744L845.93 267.8C845.61 268.44 845.546 268.696 845.546 269.464V279.832C845.546 281.688 845.034 282.2 843.178 282.2H839.083C837.227 282.2 836.714 281.688 836.714 279.832V236.568C836.714 234.712 837.227 234.2 839.083 234.2H843.051C844.907 234.2 845.419 234.712 845.419 236.568V250.264C845.419 250.776 845.61 250.904 845.93 250.904C846.186 250.904 846.378 250.84 846.57 250.392L853.163 236.568C854.187 234.456 854.634 234.2 857.066 234.2H861.035C862.891 234.2 863.275 235.16 862.507 236.696L855.083 251.48C854.699 252.184 854.698 252.504 854.954 253.272L863.019 279.512C863.531 281.24 862.955 282.2 861.227 282.2H857.322C855.402 282.2 854.763 281.688 854.251 279.96L849.514 262.872Z" fill="white"/>
<path d="M878.014 262.872C877.886 262.36 877.438 262.296 877.182 262.744L874.43 267.8C874.11 268.44 874.046 268.696 874.046 269.464V279.832C874.046 281.688 873.534 282.2 871.678 282.2H867.583C865.727 282.2 865.214 281.688 865.214 279.832V236.568C865.214 234.712 865.727 234.2 867.583 234.2H871.551C873.407 234.2 873.919 234.712 873.919 236.568V250.264C873.919 250.776 874.11 250.904 874.43 250.904C874.686 250.904 874.878 250.84 875.07 250.392L881.663 236.568C882.687 234.456 883.134 234.2 885.566 234.2H889.535C891.391 234.2 891.775 235.16 891.007 236.696L883.583 251.48C883.199 252.184 883.198 252.504 883.454 253.272L891.519 279.512C892.031 281.24 891.455 282.2 889.727 282.2H885.822C883.902 282.2 883.263 281.688 882.751 279.96L878.014 262.872Z" fill="white"/>
<path d="M906.334 251.8C906.718 251.8 906.846 251.672 906.974 251.032L909.79 236.568C910.174 234.712 910.814 234.2 912.542 234.2H917.47C919.326 234.2 919.838 234.968 919.326 236.568L911.07 264.024C910.75 265.176 910.686 265.56 910.686 267.416V279.832C910.686 281.688 910.174 282.2 908.318 282.2H904.35C902.494 282.2 901.982 281.688 901.982 279.832V267.416C901.982 265.56 901.918 265.176 901.598 264.024L893.342 236.568C892.83 234.968 893.342 234.2 895.198 234.2H900.126C901.854 234.2 902.494 234.712 902.878 236.568L905.694 251.032C905.822 251.672 905.95 251.8 906.334 251.8Z" fill="white"/>
<path d="M914.43 282.584L928.766 232.792C929.214 231.256 929.598 231 931.262 231H936.702C937.726 231 938.174 231.448 938.174 232.152C938.174 232.6 938.11 232.856 937.854 233.688L923.518 283.608C923.07 285.144 922.686 285.4 921.022 285.4H915.582C914.558 285.4 914.11 284.952 914.11 284.248C914.11 283.736 914.174 283.416 914.43 282.584Z" fill="white"/>
<path d="M958.813 257.432V236.568C958.813 234.712 959.325 234.2 961.181 234.2H964.765C966.621 234.2 967.133 234.712 967.133 236.568V279.832C967.133 281.688 966.621 282.2 964.765 282.2H961.821C959.837 282.2 959.261 281.752 958.621 280.024L950.621 258.84C950.429 258.392 950.237 258.264 949.981 258.264C949.661 258.264 949.533 258.392 949.533 258.968V279.832C949.533 281.688 949.021 282.2 947.165 282.2H943.645C941.789 282.2 941.277 281.688 941.277 279.832V236.568C941.277 234.712 941.789 234.2 943.645 234.2H946.525C948.381 234.2 949.021 234.392 949.597 235.864L957.725 257.56C957.917 258.008 958.109 258.136 958.365 258.136C958.685 258.136 958.813 258.008 958.813 257.432Z" fill="white"/>
<path d="M988.517 236.568C988.517 234.712 989.028 234.2 990.884 234.2H994.98C996.836 234.2 997.349 234.712 997.349 236.568V268.76C997.349 279.064 994.276 282.84 984.996 282.84C975.716 282.84 972.645 279.064 972.645 268.76V236.568C972.645 234.712 973.157 234.2 975.013 234.2H979.108C980.964 234.2 981.477 234.712 981.477 236.568V270.296C981.477 272.856 982.564 273.88 984.996 273.88C987.364 273.88 988.517 272.856 988.517 270.296V236.568Z" fill="white"/>
<path d="M1019.29 262.616C1019.42 263.128 1019.61 263.256 1019.93 263.256C1020.25 263.256 1020.44 263.128 1020.57 262.616L1026.07 235.864C1026.33 234.52 1026.9 234.2 1028.5 234.2H1034.71C1036.57 234.2 1037.08 234.712 1037.08 236.568V279.832C1037.08 281.688 1036.57 282.2 1034.71 282.2H1031.77C1029.91 282.2 1029.4 281.688 1029.4 279.832V259.096C1029.4 258.52 1029.27 258.392 1028.89 258.392C1028.63 258.392 1028.38 258.52 1028.31 258.968L1023.77 280.088C1023.45 281.624 1022.74 282.2 1020.89 282.2H1019.16C1017.24 282.2 1016.54 281.624 1016.22 280.088L1011.61 258.968C1011.48 258.52 1011.35 258.392 1011.03 258.392C1010.65 258.392 1010.52 258.52 1010.52 259.096V279.832C1010.52 281.688 1010.01 282.2 1008.15 282.2H1005.21C1003.35 282.2 1002.84 281.688 1002.84 279.832V236.568C1002.84 234.712 1003.35 234.2 1005.21 234.2H1010.52C1012.76 234.2 1013.59 234.712 1014.04 236.952L1019.29 262.616Z" fill="white"/>
<path d="M1045.27 282.2C1043.41 282.2 1042.9 281.688 1042.9 279.832V236.568C1042.9 234.712 1043.41 234.2 1045.27 234.2H1054.36C1063.64 234.2 1067.86 237.656 1067.86 245.4V249.112C1067.86 252.44 1066.77 254.808 1064.53 256.856C1064.34 257.048 1064.28 257.112 1064.28 257.24C1064.28 257.368 1064.34 257.432 1064.53 257.624C1066.97 259.608 1068.18 261.72 1068.18 265.112V271.32C1068.18 278.744 1063.77 282.2 1054.04 282.2H1045.27ZM1051.73 244.312V251.672C1051.73 252.568 1051.99 252.824 1052.89 252.824H1054.23C1057.37 252.824 1058.77 251.736 1058.77 248.92V247.064C1058.77 244.248 1057.37 243.16 1054.23 243.16H1052.89C1051.99 243.16 1051.73 243.416 1051.73 244.312ZM1054.55 273.24C1057.69 273.24 1059.09 272.152 1059.09 269.336V265.688C1059.09 262.872 1057.69 261.784 1054.55 261.784H1052.89C1051.99 261.784 1051.73 262.04 1051.73 262.936V272.088C1051.73 272.984 1051.99 273.24 1052.89 273.24H1054.55Z" fill="white"/>
<path d="M1081.36 244.312V251.48C1081.36 252.312 1081.61 252.632 1082.51 252.632H1090.45C1092.3 252.632 1092.82 253.144 1092.82 255V259.224C1092.82 261.08 1092.3 261.592 1090.58 261.592H1082.51C1081.61 261.592 1081.36 261.848 1081.36 262.744V272.088C1081.36 272.92 1081.61 273.24 1082.51 273.24H1091.21C1093.07 273.24 1093.58 273.752 1093.58 275.608V279.832C1093.58 281.688 1093.07 282.2 1091.21 282.2H1074.89C1073.04 282.2 1072.53 281.688 1072.53 279.832V236.568C1072.53 234.712 1073.04 234.2 1074.89 234.2H1091.21C1093.07 234.2 1093.58 234.712 1093.58 236.568V240.792C1093.58 242.648 1093.07 243.16 1091.21 243.16H1082.51C1081.61 243.16 1081.36 243.416 1081.36 244.312Z" fill="white"/>
<path d="M1114.55 280.408L1109.43 264.856C1109.11 263.96 1108.85 263.704 1107.89 263.704H1107.64C1106.74 263.704 1106.48 263.96 1106.48 264.856V279.832C1106.48 281.688 1105.97 282.2 1104.12 282.2H1100.02C1098.16 282.2 1097.65 281.688 1097.65 279.832V236.568C1097.65 234.712 1098.16 234.2 1100.02 234.2H1108.47C1118.2 234.2 1122.61 237.528 1122.61 245.72V250.328C1122.61 256.344 1121.65 258.648 1118.26 261.528C1117.88 261.784 1117.81 261.912 1117.81 262.232C1117.81 262.424 1117.88 262.616 1118 263.064L1123.64 279.768C1124.21 281.432 1123.57 282.2 1121.91 282.2H1117.24C1115.44 282.2 1115.06 281.944 1114.55 280.408ZM1106.48 243.992V253.848C1106.48 254.744 1106.74 255 1107.64 255H1108.98C1111.99 255 1113.52 253.656 1113.52 250.584V247.064C1113.52 244.056 1112.12 242.84 1108.98 242.84H1107.64C1106.74 242.84 1106.48 243.096 1106.48 243.992Z" fill="white"/>
<defs>
<filter id="filter0_f_99_22" x="554.5" y="0.5" width="667" height="420" filterUnits="userSpaceOnUse" color-interpolation-filters="sRGB">
<feFlood flood-opacity="0" result="BackgroundImageFix"/>
<feBlend mode="normal" in="SourceGraphic" in2="BackgroundImageFix" result="shape"/>
<feGaussianBlur stdDeviation="13.25" result="effect1_foregroundBlur_99_22"/>
</filter>
</defs>
</svg>
