<svg width="650" height="650" viewBox="0 0 650 650" fill="none" xmlns="http://www.w3.org/2000/svg">
<g filter="url(#filter0_df_85_2)">
<rect x="359" y="81" width="271" height="378" rx="25" fill="#ACDAFF" shape-rendering="crispEdges"/>
<path d="M524.052 132.004C525.66 128.031 529.482 125.471 533.695 125.471H582.341C588.118 125.471 592.765 130.194 592.765 136.066V185.51C592.765 189.792 590.246 193.677 586.337 195.31C582.428 196.944 577.954 196.061 574.957 193.015L560.45 178.27L537.604 201.491C546.073 214.029 551.068 229.171 551.068 245.549C551.068 288.459 516.842 323.247 474.625 323.247C432.407 323.247 398.181 288.459 398.181 245.549C398.181 202.639 432.407 167.851 474.625 167.851C490.695 167.851 505.636 172.884 517.972 181.537L540.818 158.316L526.311 143.571C523.314 140.525 522.445 135.978 524.052 132.004ZM474.625 294.993C481.013 294.993 487.339 293.714 493.241 291.229C499.143 288.745 504.505 285.103 509.023 280.511C513.54 275.92 517.123 270.469 519.568 264.471C522.012 258.472 523.271 252.042 523.271 245.549C523.271 239.056 522.012 232.627 519.568 226.628C517.123 220.629 513.54 215.178 509.023 210.587C504.505 205.996 499.143 202.354 493.241 199.869C487.339 197.384 481.013 196.105 474.625 196.105C468.236 196.105 461.91 197.384 456.008 199.869C450.106 202.354 444.744 205.996 440.227 210.587C435.709 215.178 432.126 220.629 429.681 226.628C427.237 232.627 425.978 239.056 425.978 245.549C425.978 252.042 427.237 258.472 429.681 264.471C432.126 270.469 435.709 275.92 440.227 280.511C444.744 285.103 450.106 288.745 456.008 291.229C461.91 293.714 468.236 294.993 474.625 294.993Z" fill="#4190EA"/>
</g>
<g filter="url(#filter1_df_85_2)">
<rect x="20" y="81" width="271" height="378" rx="25" fill="#FFEF9A" shape-rendering="crispEdges"/>
<path d="M176.108 132.797C177.9 128.341 182.162 125.47 186.86 125.47H241.103C247.545 125.47 252.727 130.767 252.727 137.352V192.801C252.727 197.604 249.918 201.96 245.559 203.792C241.2 205.624 236.212 204.634 232.87 201.218L213.982 181.909L202.019 194.138C209.623 206.317 213.982 220.823 213.982 236.368C213.982 276.074 185.407 308.948 148.114 314.691V327.464H159.738C166.179 327.464 171.362 332.761 171.362 339.346C171.362 345.93 166.179 351.228 159.738 351.228H148.114V367.07C148.114 373.655 142.932 378.952 136.491 378.952C130.049 378.952 124.867 373.655 124.867 367.07V351.228H113.244C106.802 351.228 101.62 345.93 101.62 339.346C101.62 332.761 106.802 327.464 113.244 327.464H124.867V314.691C87.5747 308.948 59 276.074 59 236.368C59 192.603 93.6771 157.155 136.491 157.155C155.67 157.155 173.25 164.284 186.763 176.067L197.563 165.077L178.626 145.768C175.285 142.352 174.316 137.253 176.108 132.797ZM182.985 236.368C182.985 223.763 178.087 211.674 169.367 202.761C160.648 193.848 148.822 188.841 136.491 188.841C124.16 188.841 112.334 193.848 103.614 202.761C94.8948 211.674 89.9963 223.763 89.9963 236.368C89.9963 248.974 94.8948 261.063 103.614 269.976C112.334 278.889 124.16 283.896 136.491 283.896C148.822 283.896 160.648 278.889 169.367 269.976C178.087 261.063 182.985 248.974 182.985 236.368Z" fill="#FBC217"/>
</g>
<g filter="url(#filter2_d_85_2)">
<rect x="201" y="190" width="271" height="378" rx="25" fill="#FFACAC" shape-rendering="crispEdges"/>
<path d="M288.159 312.815C288.159 306.268 289.423 299.785 291.88 293.736C294.337 287.688 297.938 282.192 302.477 277.562C307.016 272.933 312.406 269.26 318.337 266.755C324.268 264.249 330.624 262.96 337.044 262.96C343.464 262.96 349.821 264.249 355.752 266.755C361.683 269.26 367.072 272.933 371.611 277.562C376.151 282.192 379.751 287.688 382.208 293.736C384.665 299.785 385.929 306.268 385.929 312.815C385.929 319.363 384.665 325.846 382.208 331.894C379.751 337.943 376.151 343.439 371.611 348.069C367.072 352.698 361.683 356.371 355.752 358.876C349.821 361.382 343.464 362.671 337.044 362.671C330.624 362.671 324.268 361.382 318.337 358.876C312.406 356.371 307.016 352.698 302.477 348.069C297.938 343.439 294.337 337.943 291.88 331.894C289.423 325.846 288.159 319.363 288.159 312.815ZM351.011 389.869C386.759 383.192 413.864 351.231 413.864 312.815C413.864 269.548 379.469 234.471 337.044 234.471C294.619 234.471 260.224 269.548 260.224 312.815C260.224 351.231 287.33 383.192 323.077 389.869V405.405H309.11C301.384 405.405 295.142 411.77 295.142 419.649C295.142 427.528 301.384 433.893 309.11 433.893H323.077V448.138C323.077 456.017 329.318 462.382 337.044 462.382C344.77 462.382 351.011 456.017 351.011 448.138V433.893H364.979C372.704 433.893 378.946 427.528 378.946 419.649C378.946 411.77 372.704 405.405 364.979 405.405H351.011V389.869Z" fill="#FF5454"/>
</g>
<defs>
<filter id="filter0_df_85_2" x="339" y="61" width="311" height="418" filterUnits="userSpaceOnUse" color-interpolation-filters="sRGB">
<feFlood flood-opacity="0" result="BackgroundImageFix"/>
<feColorMatrix in="SourceAlpha" type="matrix" values="0 0 0 0 0 0 0 0 0 0 0 0 0 0 0 0 0 0 127 0" result="hardAlpha"/>
<feOffset dx="4" dy="5"/>
<feGaussianBlur stdDeviation="2"/>
<feComposite in2="hardAlpha" operator="out"/>
<feColorMatrix type="matrix" values="0 0 0 0 0 0 0 0 0 0 0 0 0 0 0 0 0 0 0.25 0"/>
<feBlend mode="normal" in2="BackgroundImageFix" result="effect1_dropShadow_85_2"/>
<feBlend mode="normal" in="SourceGraphic" in2="effect1_dropShadow_85_2" result="shape"/>
<feGaussianBlur stdDeviation="10" result="effect2_foregroundBlur_85_2"/>
</filter>
<filter id="filter1_df_85_2" x="0" y="61" width="311" height="418" filterUnits="userSpaceOnUse" color-interpolation-filters="sRGB">
<feFlood flood-opacity="0" result="BackgroundImageFix"/>
<feColorMatrix in="SourceAlpha" type="matrix" values="0 0 0 0 0 0 0 0 0 0 0 0 0 0 0 0 0 0 127 0" result="hardAlpha"/>
<feOffset dx="4" dy="5"/>
<feGaussianBlur stdDeviation="2"/>
<feComposite in2="hardAlpha" operator="out"/>
<feColorMatrix type="matrix" values="0 0 0 0 0 0 0 0 0 0 0 0 0 0 0 0 0 0 0.25 0"/>
<feBlend mode="normal" in2="BackgroundImageFix" result="effect1_dropShadow_85_2"/>
<feBlend mode="normal" in="SourceGraphic" in2="effect1_dropShadow_85_2" result="shape"/>
<feGaussianBlur stdDeviation="10" result="effect2_foregroundBlur_85_2"/>
</filter>
<filter id="filter2_d_85_2" x="201" y="190" width="279" height="387" filterUnits="userSpaceOnUse" color-interpolation-filters="sRGB">
<feFlood flood-opacity="0" result="BackgroundImageFix"/>
<feColorMatrix in="SourceAlpha" type="matrix" values="0 0 0 0 0 0 0 0 0 0 0 0 0 0 0 0 0 0 127 0" result="hardAlpha"/>
<feOffset dx="4" dy="5"/>
<feGaussianBlur stdDeviation="2"/>
<feComposite in2="hardAlpha" operator="out"/>
<feColorMatrix type="matrix" values="0 0 0 0 0 0 0 0 0 0 0 0 0 0 0 0 0 0 0.25 0"/>
<feBlend mode="normal" in2="BackgroundImageFix" result="effect1_dropShadow_85_2"/>
<feBlend mode="normal" in="SourceGraphic" in2="effect1_dropShadow_85_2" result="shape"/>
</filter>
</defs>
</svg>
